<svg xml:space="preserve" style="max-height: 500px" viewBox="98 344 850 302" y="0px" x="0px" xmlns:xlink="http://www.w3.org/1999/xlink" xmlns="http://www.w3.org/2000/svg" id="Layer_1" version="1.1" width="850" height="302">
<style type="text/css">
	.st11{fill:#f15b40;}
</style>
<g>
	<g>
		<g>
			<g>
				<rect height="26.7" width="55.1" class="st11" y="482.4" x="141.6"/>
				<rect height="26.7" width="60.1" class="st11" y="544.4" x="141.6"/>
				
					<rect height="26.7" width="56.7" class="st11" transform="matrix(6.123234e-17 -1 1 6.123234e-17 -327.676 757.6576)" y="529.3" x="186.6"/>
				<rect height="23.9" width="23.9" class="st11" y="514.8" x="141.6"/>
				<rect height="45" width="26.7" class="st11" y="428.9" x="201.6"/>
				<rect height="24.5" width="26.7" class="st11" y="482.4" x="201.6"/>
			</g>
			<g>
				<rect height="30.6" width="43.2" class="st11" y="430.7" x="269.2"/>
				<rect height="26.7" width="43.7" class="st11" y="544.4" x="255"/>
				<rect height="28.5" width="28.5" class="st11" y="460.2" x="240.8"/>
				<rect height="28.2" width="29.5" class="st11" y="488.6" x="269.2"/>
				<rect height="28.2" width="29.5" class="st11" y="515.9" x="298.7"/>
			</g>
		</g>
	</g>
	<g>
		<g>
			<path d="M387.1,519.1v-6.4c-3.9,5-9.4,7.7-15.5,7.7c-12.6,0-22.2-9.6-22.2-26.4c0-16.3,9.5-26.3,22.2-26.3&#10;&#9;&#9;&#9;&#9;c5.9,0,11.5,2.5,15.5,7.7v-25.6h13.3v69.3H387.1z M387.1,502.9v-17.8c-2.2-3.3-7-5.7-11.3-5.7c-7.6,0-12.8,5.9-12.8,14.5&#10;&#9;&#9;&#9;&#9;c0,8.7,5.2,14.6,12.8,14.6C380.1,508.6,384.9,506.2,387.1,502.9z" class="st11"/>
			<path d="M447.7,519.1v-5.3c-3.4,4.2-9.4,6.5-15.9,6.5c-8,0-17.3-5.4-17.3-16.6c0-11.8,9.4-16.2,17.3-16.2&#10;&#9;&#9;&#9;&#9;c6.8,0,12.6,2.2,15.9,6.1v-6.3c0-5.1-4.4-8.4-11-8.4c-5.3,0-10.3,2.1-14.4,5.9l-5.2-9.2c6.1-5.5,14-7.9,21.9-7.9&#10;&#9;&#9;&#9;&#9;c11.5,0,22,4.6,22,19v32.4H447.7z M447.7,507.1v-6.2c-2.2-2.9-6.3-4.5-10.6-4.5c-5.2,0-9.5,2.8-9.5,7.6s4.3,7.5,9.5,7.5&#10;&#9;&#9;&#9;&#9;C441.4,511.4,445.6,510,447.7,507.1z" class="st11"/>
			<path d="M480.9,506.5v-26.1h-8.3v-11.5h8.3v-13.7h13.2v13.7h10.2v11.5h-10.2V503c0,3.2,1.7,5.6,4.6,5.6&#10;&#9;&#9;&#9;&#9;c2,0,3.8-0.7,4.6-1.6l2.8,10.1c-2,1.8-5.5,3.2-11,3.2C485.8,520.4,480.9,515.6,480.9,506.5z" class="st11"/>
			<path d="M547.6,519.1v-5.3c-3.4,4.2-9.4,6.5-15.9,6.5c-8,0-17.3-5.4-17.3-16.6c0-11.8,9.4-16.2,17.3-16.2&#10;&#9;&#9;&#9;&#9;c6.8,0,12.6,2.2,15.9,6.1v-6.3c0-5.1-4.4-8.4-11-8.4c-5.3,0-10.3,2.1-14.4,5.9l-5.2-9.2c6.1-5.5,14-7.9,21.9-7.9&#10;&#9;&#9;&#9;&#9;c11.5,0,22,4.6,22,19v32.4H547.6z M547.6,507.1v-6.2c-2.2-2.9-6.3-4.5-10.6-4.5c-5.2,0-9.5,2.8-9.5,7.6s4.3,7.5,9.5,7.5&#10;&#9;&#9;&#9;&#9;C541.2,511.4,545.4,510,547.6,507.1z" class="st11"/>
			<path d="M573.6,509.3l8.1-11.5c4.9,5.1,12.5,9.5,22,9.5c8.2,0,12.1-3.6,12.1-7.7c0-12.1-39.9-3.6-39.9-29.7&#10;&#9;&#9;&#9;&#9;c0-11.5,10-21.1,26.3-21.1c11,0,20.2,3.3,27,9.7l-8.2,11c-5.6-5.2-13.1-7.6-20.2-7.6c-6.2,0-9.8,2.7-9.8,6.9&#10;&#9;&#9;&#9;&#9;c0,10.9,39.8,3.5,39.8,29.4c0,12.7-9.1,22.2-27.7,22.2C589.7,520.4,580.1,515.9,573.6,509.3z" class="st11"/>
			<path d="M645.8,506.5v-26.1h-8.3v-11.5h8.3v-13.7H659v13.7h10.2v11.5H659V503c0,3.2,1.7,5.6,4.6,5.6&#10;&#9;&#9;&#9;&#9;c2,0,3.8-0.7,4.6-1.6l2.8,10.1c-2,1.8-5.5,3.2-11,3.2C650.7,520.4,645.8,515.6,645.8,506.5z" class="st11"/>
			<path d="M679.1,494c0-14.2,10-26.3,26.5-26.3c16.6,0,26.6,12.1,26.6,26.3c0,14.2-10,26.4-26.6,26.4&#10;&#9;&#9;&#9;&#9;C689.1,520.4,679.1,508.2,679.1,494z M718.5,494c0-7.8-4.6-14.5-12.9-14.5c-8.2,0-12.8,6.8-12.8,14.5c0,7.9,4.6,14.6,12.8,14.6&#10;&#9;&#9;&#9;&#9;C713.9,508.6,718.5,501.9,718.5,494z" class="st11"/>
			<path d="M780.1,519.1v-30.3c0-7-3.6-9.4-9.2-9.4c-5.2,0-9.1,2.9-11.4,5.8v33.9h-13.2v-50.2h13.2v6.4&#10;&#9;&#9;&#9;&#9;c3.2-3.7,9.5-7.7,17.6-7.7c11.1,0,16.4,6.2,16.4,16v35.4H780.1z" class="st11"/>
			<path d="M807.3,494c0-14.5,10.8-26.3,26-26.3c15.1,0,25.1,11.2,25.1,27.5v3.1h-37.3c0.9,6.1,5.9,11.2,14.4,11.2&#10;&#9;&#9;&#9;&#9;c4.3,0,10.1-1.8,13.3-4.9l5.9,8.7c-5,4.6-12.9,7-20.7,7C818.9,520.4,807.3,510.1,807.3,494z M833.3,478.5&#10;&#9;&#9;&#9;&#9;c-8.2,0-11.7,5.7-12.3,10.7h24.7C845.4,484.4,842,478.5,833.3,478.5z" class="st11"/>
		</g>
		<g>
			<g>
				<path d="M356.6,551.2c-2.2,0-4-0.7-5.5-2.1c-1.5-1.4-2.2-3.2-2.2-5.5c0-2.2,0.7-4,2.2-5.5c1.5-1.4,3.3-2.1,5.5-2.1&#10;&#9;&#9;&#9;&#9;&#9;c2.6,0,4.5,1.1,5.9,3.3l-2.2,1.1c-0.4-0.6-0.9-1.1-1.5-1.5c-0.7-0.4-1.4-0.6-2.1-0.6c-1.5,0-2.7,0.5-3.6,1.5&#10;&#9;&#9;&#9;&#9;&#9;c-1,1-1.4,2.3-1.4,3.8c0,1.5,0.5,2.8,1.4,3.8c1,1,2.2,1.5,3.6,1.5c0.8,0,1.5-0.2,2.1-0.6c0.7-0.4,1.2-0.9,1.5-1.5l2.2,1.1&#10;&#9;&#9;&#9;&#9;&#9;C361.1,550.1,359.1,551.2,356.6,551.2z" class="st11"/>
				<path d="M378.3,551.2c-2.1,0-3.6-0.5-4.7-1.6c-1.1-1.1-1.6-2.6-1.6-4.4v-8.9h2.6v8.8c0,1.2,0.3,2.1,1,2.8&#10;&#9;&#9;&#9;&#9;&#9;c0.6,0.7,1.6,1,2.8,1s2.1-0.3,2.8-1c0.6-0.7,1-1.6,1-2.8v-8.8h2.6v8.9c0,1.9-0.5,3.4-1.6,4.4C382,550.7,380.4,551.2,378.3,551.2&#10;&#9;&#9;&#9;&#9;&#9;z" class="st11"/>
				<path d="M400.3,551.2c-2.5,0-4.5-0.8-6-2.3l1.5-2c1.2,1.4,2.8,2,4.6,2c1,0,1.7-0.2,2.2-0.6&#10;&#9;&#9;&#9;&#9;&#9;c0.5-0.4,0.7-0.9,0.7-1.4c0-0.5-0.2-0.9-0.6-1.2c-0.4-0.3-0.9-0.5-1.6-0.7c-0.6-0.1-1.3-0.3-2.1-0.5s-1.4-0.5-2.1-0.7&#10;&#9;&#9;&#9;&#9;&#9;c-0.6-0.3-1.2-0.7-1.6-1.3c-0.4-0.6-0.6-1.3-0.6-2.1c0-1.2,0.5-2.3,1.5-3.1c1-0.8,2.3-1.2,3.9-1.2c2.2,0,4.1,0.7,5.5,2.1&#10;&#9;&#9;&#9;&#9;&#9;l-1.5,1.9c-1.1-1.1-2.6-1.7-4.3-1.7c-0.7,0-1.3,0.2-1.8,0.5c-0.4,0.3-0.7,0.8-0.7,1.3c0,0.4,0.2,0.7,0.5,0.9&#10;&#9;&#9;&#9;&#9;&#9;c0.3,0.3,0.7,0.5,1.2,0.6c0.5,0.2,1.1,0.3,1.7,0.4c0.6,0.1,1.2,0.3,1.8,0.5c0.6,0.2,1.2,0.5,1.7,0.8c0.5,0.3,0.9,0.7,1.2,1.3&#10;&#9;&#9;&#9;&#9;&#9;c0.3,0.6,0.5,1.2,0.5,1.9c0,1.3-0.5,2.4-1.4,3.3C403.6,550.8,402.2,551.2,400.3,551.2z" class="st11"/>
				<path d="M421.7,551h-2.6v-12.4h-4.4v-2.3h11.5v2.3h-4.4V551z" class="st11"/>
				<path d="M447.5,549.1c-1.4,1.4-3.2,2.1-5.4,2.1s-4-0.7-5.4-2.1c-1.4-1.4-2.1-3.2-2.1-5.4c0-2.2,0.7-4,2.1-5.4&#10;&#9;&#9;&#9;&#9;&#9;c1.4-1.4,3.2-2.1,5.4-2.1s4,0.7,5.4,2.1c1.4,1.4,2.1,3.2,2.1,5.4C449.6,545.8,448.9,547.7,447.5,549.1z M442.1,548.9&#10;&#9;&#9;&#9;&#9;&#9;c1.5,0,2.6-0.5,3.5-1.5c0.9-1,1.3-2.3,1.3-3.8c0-1.5-0.4-2.8-1.3-3.8c-0.9-1-2.1-1.5-3.5-1.5c-1.5,0-2.6,0.5-3.5,1.5&#10;&#9;&#9;&#9;&#9;&#9;c-0.9,1-1.3,2.3-1.3,3.8s0.4,2.8,1.3,3.8C439.4,548.4,440.6,548.9,442.1,548.9z" class="st11"/>
				<path d="M474.8,551h-2.6v-11.3l-4.5,11.3h-1.1l-4.5-11.3V551h-2.6v-14.7h3.6l4,10.1l4-10.1h3.6V551z" class="st11"/>
				<path d="M504,551h-5.5v-14.7h5.5c2.3,0,4.1,0.7,5.6,2c1.4,1.4,2.1,3.1,2.1,5.3c0,2.2-0.7,3.9-2.1,5.3&#10;&#9;&#9;&#9;&#9;&#9;C508.1,550.3,506.3,551,504,551z M504,548.7c1.5,0,2.8-0.5,3.7-1.5c0.9-1,1.4-2.2,1.4-3.6c0-1.5-0.4-2.7-1.3-3.6&#10;&#9;&#9;&#9;&#9;&#9;c-0.9-1-2.1-1.4-3.7-1.4h-2.9v10.1H504z" class="st11"/>
				<path d="M534.1,551h-2.9l-1.1-2.8h-6.7l-1.1,2.8h-2.9l5.8-14.7h3.2L534.1,551z M529.3,545.9l-2.6-7l-2.6,7H529.3z" class="st11"/>
				<path d="M547.8,551h-2.6v-12.4h-4.4v-2.3h11.5v2.3h-4.4V551z" class="st11"/>
				<path d="M573.6,551h-2.9l-1.1-2.8h-6.7l-1.1,2.8h-2.9l5.8-14.7h3.2L573.6,551z M568.9,545.9l-2.6-7l-2.6,7H568.9z" class="st11"/>
				<path d="M590.1,551h-7.4v-14.7h7.2c1.3,0,2.3,0.4,3.1,1.1c0.7,0.7,1.1,1.6,1.1,2.7c0,0.9-0.2,1.6-0.7,2.2&#10;&#9;&#9;&#9;&#9;&#9;c-0.5,0.6-1.1,1-1.8,1.1c0.8,0.1,1.5,0.5,2,1.2c0.5,0.7,0.8,1.5,0.8,2.4c0,1.2-0.4,2.1-1.1,2.9C592.5,550.6,591.5,551,590.1,551&#10;&#9;&#9;&#9;&#9;&#9;z M589.4,542.3c0.6,0,1.1-0.2,1.5-0.5c0.4-0.3,0.5-0.8,0.5-1.4c0-0.6-0.2-1-0.5-1.4c-0.4-0.4-0.9-0.5-1.5-0.5h-4.1v3.8H589.4z&#10;&#9;&#9;&#9;&#9;&#9; M589.5,548.7c0.7,0,1.2-0.2,1.6-0.5s0.6-0.9,0.6-1.5c0-0.6-0.2-1.1-0.6-1.5c-0.4-0.4-0.9-0.6-1.6-0.6h-4.2v4.1H589.5z" class="st11"/>
				<path d="M617.7,551h-2.9l-1.1-2.8h-6.7l-1.1,2.8h-2.9l5.8-14.7h3.2L617.7,551z M612.9,545.9l-2.6-7l-2.6,7H612.9z" class="st11"/>
				<path d="M631.5,551.2c-2.5,0-4.5-0.8-6-2.3l1.5-2c1.2,1.4,2.8,2,4.6,2c1,0,1.7-0.2,2.2-0.6&#10;&#9;&#9;&#9;&#9;&#9;c0.5-0.4,0.7-0.9,0.7-1.4c0-0.5-0.2-0.9-0.6-1.2c-0.4-0.3-0.9-0.5-1.6-0.7c-0.6-0.1-1.3-0.3-2.1-0.5c-0.7-0.2-1.4-0.5-2.1-0.7&#10;&#9;&#9;&#9;&#9;&#9;c-0.6-0.3-1.2-0.7-1.6-1.3c-0.4-0.6-0.6-1.3-0.6-2.1c0-1.2,0.5-2.3,1.5-3.1c1-0.8,2.3-1.2,3.9-1.2c2.2,0,4.1,0.7,5.5,2.1&#10;&#9;&#9;&#9;&#9;&#9;l-1.5,1.9c-1.1-1.1-2.6-1.7-4.3-1.7c-0.7,0-1.3,0.2-1.8,0.5c-0.4,0.3-0.7,0.8-0.7,1.3c0,0.4,0.2,0.7,0.5,0.9&#10;&#9;&#9;&#9;&#9;&#9;c0.3,0.3,0.7,0.5,1.2,0.6c0.5,0.2,1.1,0.3,1.7,0.4c0.6,0.1,1.2,0.3,1.8,0.5c0.6,0.2,1.2,0.5,1.7,0.8c0.5,0.3,0.9,0.7,1.2,1.3&#10;&#9;&#9;&#9;&#9;&#9;c0.3,0.6,0.5,1.2,0.5,1.9c0,1.3-0.5,2.4-1.4,3.3C634.8,550.8,633.4,551.2,631.5,551.2z" class="st11"/>
				<path d="M657.1,551h-10v-14.7h10v2.3h-7.5v3.8h7.3v2.3h-7.3v4.1h7.5V551z" class="st11"/>
				<path d="M685.4,551.2c-2.5,0-4.5-0.8-6-2.3l1.5-2c1.2,1.4,2.8,2,4.6,2c1,0,1.7-0.2,2.2-0.6&#10;&#9;&#9;&#9;&#9;&#9;c0.5-0.4,0.7-0.9,0.7-1.4c0-0.5-0.2-0.9-0.6-1.2c-0.4-0.3-0.9-0.5-1.6-0.7c-0.6-0.1-1.3-0.3-2.1-0.5c-0.7-0.2-1.4-0.5-2.1-0.7&#10;&#9;&#9;&#9;&#9;&#9;s-1.2-0.7-1.6-1.3c-0.4-0.6-0.6-1.3-0.6-2.1c0-1.2,0.5-2.3,1.5-3.1c1-0.8,2.3-1.2,3.9-1.2c2.2,0,4.1,0.7,5.5,2.1l-1.5,1.9&#10;&#9;&#9;&#9;&#9;&#9;c-1.1-1.1-2.6-1.7-4.3-1.7c-0.7,0-1.3,0.2-1.8,0.5c-0.4,0.3-0.7,0.8-0.7,1.3c0,0.4,0.2,0.7,0.5,0.9c0.3,0.3,0.7,0.5,1.2,0.6&#10;&#9;&#9;&#9;&#9;&#9;c0.5,0.2,1.1,0.3,1.7,0.4c0.6,0.1,1.2,0.3,1.8,0.5c0.6,0.2,1.2,0.5,1.7,0.8c0.5,0.3,0.9,0.7,1.2,1.3c0.3,0.6,0.5,1.2,0.5,1.9&#10;&#9;&#9;&#9;&#9;&#9;c0,1.3-0.5,2.4-1.4,3.3C688.7,550.8,687.3,551.2,685.4,551.2z" class="st11"/>
				<path d="M713.1,549.1c-1.4,1.4-3.2,2.1-5.4,2.1c-2.2,0-4-0.7-5.4-2.1c-1.4-1.4-2.1-3.2-2.1-5.4&#10;&#9;&#9;&#9;&#9;&#9;c0-2.2,0.7-4,2.1-5.4c1.4-1.4,3.2-2.1,5.4-2.1c2.2,0,4,0.7,5.4,2.1c1.4,1.4,2.1,3.2,2.1,5.4&#10;&#9;&#9;&#9;&#9;&#9;C715.3,545.8,714.6,547.7,713.1,549.1z M707.8,548.9c1.5,0,2.6-0.5,3.5-1.5c0.9-1,1.3-2.3,1.3-3.8c0-1.5-0.4-2.8-1.3-3.8&#10;&#9;&#9;&#9;&#9;&#9;c-0.9-1-2.1-1.5-3.5-1.5c-1.5,0-2.6,0.5-3.5,1.5c-0.9,1-1.3,2.3-1.3,3.8s0.4,2.8,1.3,3.8C705.1,548.4,706.3,548.9,707.8,548.9z" class="st11"/>
				<path d="M734.1,551h-9v-14.7h2.6v12.4h6.5V551z" class="st11"/>
				<path d="M749.6,551.2c-2.1,0-3.6-0.5-4.7-1.6c-1.1-1.1-1.6-2.6-1.6-4.4v-8.9h2.6v8.8c0,1.2,0.3,2.1,1,2.8&#10;&#9;&#9;&#9;&#9;&#9;c0.6,0.7,1.6,1,2.8,1c1.2,0,2.1-0.3,2.8-1c0.6-0.7,1-1.6,1-2.8v-8.8h2.6v8.9c0,1.9-0.5,3.4-1.6,4.4&#10;&#9;&#9;&#9;&#9;&#9;C753.3,550.7,751.7,551.2,749.6,551.2z" class="st11"/>
				<path d="M772.6,551h-2.6v-12.4h-4.4v-2.3h11.5v2.3h-4.4V551z" class="st11"/>
				<path d="M789.3,551h-2.6v-14.7h2.6V551z" class="st11"/>
				<path d="M812.1,549.1c-1.4,1.4-3.2,2.1-5.4,2.1c-2.2,0-4-0.7-5.4-2.1c-1.4-1.4-2.1-3.2-2.1-5.4&#10;&#9;&#9;&#9;&#9;&#9;c0-2.2,0.7-4,2.1-5.4c1.4-1.4,3.2-2.1,5.4-2.1c2.2,0,4,0.7,5.4,2.1c1.4,1.4,2.1,3.2,2.1,5.4&#10;&#9;&#9;&#9;&#9;&#9;C814.3,545.8,813.6,547.7,812.1,549.1z M806.8,548.9c1.5,0,2.6-0.5,3.5-1.5c0.9-1,1.3-2.3,1.3-3.8c0-1.5-0.4-2.8-1.3-3.8&#10;&#9;&#9;&#9;&#9;&#9;c-0.9-1-2.1-1.5-3.5-1.5c-1.5,0-2.6,0.5-3.5,1.5c-0.9,1-1.3,2.3-1.3,3.8s0.4,2.8,1.3,3.8C804.1,548.4,805.3,548.9,806.8,548.9z" class="st11"/>
				<path d="M836.9,551h-2.5l-7.7-10.5V551h-2.6v-14.7h2.6l7.5,10.2v-10.2h2.6V551z" class="st11"/>
				<path d="M852.5,551.2c-2.5,0-4.5-0.8-6-2.3l1.5-2c1.2,1.4,2.8,2,4.6,2c1,0,1.7-0.2,2.2-0.6&#10;&#9;&#9;&#9;&#9;&#9;c0.5-0.4,0.7-0.9,0.7-1.4c0-0.5-0.2-0.9-0.6-1.2c-0.4-0.3-0.9-0.5-1.6-0.7c-0.6-0.1-1.3-0.3-2.1-0.5c-0.7-0.2-1.4-0.5-2.1-0.7&#10;&#9;&#9;&#9;&#9;&#9;c-0.6-0.3-1.2-0.7-1.6-1.3c-0.4-0.6-0.6-1.3-0.6-2.1c0-1.2,0.5-2.3,1.5-3.1c1-0.8,2.3-1.2,3.9-1.2c2.2,0,4.1,0.7,5.5,2.1&#10;&#9;&#9;&#9;&#9;&#9;l-1.5,1.9c-1.1-1.1-2.6-1.7-4.3-1.7c-0.7,0-1.3,0.2-1.8,0.5c-0.4,0.3-0.7,0.8-0.7,1.3c0,0.4,0.2,0.7,0.5,0.9&#10;&#9;&#9;&#9;&#9;&#9;c0.3,0.3,0.7,0.5,1.2,0.6c0.5,0.2,1.1,0.3,1.7,0.4c0.6,0.1,1.2,0.3,1.8,0.5c0.6,0.2,1.2,0.5,1.7,0.8c0.5,0.3,0.9,0.7,1.2,1.3&#10;&#9;&#9;&#9;&#9;&#9;c0.3,0.6,0.5,1.2,0.5,1.9c0,1.3-0.5,2.4-1.4,3.3C855.8,550.8,854.4,551.2,852.5,551.2z" class="st11"/>
			</g>
		</g>
	</g>
</g>
<g>
	<g>
		<path d="M860.5,465.4c0-2.9,2.2-4.8,5-4.8c2,0,3.2,1.1,3.9,2.3l-1.7,0.8c-0.4-0.8-1.2-1.4-2.2-1.4&#10;&#9;&#9;&#9;c-1.7,0-2.9,1.3-2.9,3.1c0,1.8,1.2,3.1,2.9,3.1c1,0,1.8-0.6,2.2-1.4l1.7,0.8c-0.7,1.2-1.8,2.3-3.9,2.3&#10;&#9;&#9;&#9;C862.6,470.2,860.5,468.3,860.5,465.4z" class="st11"/>
	</g>
	<g>
		<path d="M864.9,474c-4.7,0-8.6-3.8-8.6-8.6c0-4.7,3.8-8.6,8.6-8.6c4.7,0,8.6,3.8,8.6,8.6&#10;&#9;&#9;&#9;C873.5,470.1,869.6,474,864.9,474z M864.9,457.6c-4.3,0-7.8,3.5-7.8,7.8c0,4.3,3.5,7.8,7.8,7.8s7.8-3.5,7.8-7.8&#10;&#9;&#9;&#9;C872.7,461.1,869.2,457.6,864.9,457.6z" class="st11"/>
	</g>
</g>
</svg>